<svg xmlns="http://www.w3.org/2000/svg" viewBox="0 0 255.41 107.87"><defs><style>.cls-1{fill:#e8b773;stroke:#683c11;stroke-width:3px;}.cls-1,.cls-3{stroke-miterlimit:10;}.cls-2{fill:#683d13;}.cls-3{fill:#1d1d1b;stroke:#1d1d1b;stroke-width:0.5px;}.cls-4{fill:#683c11;}</style></defs><title>Fichier 15</title><g id="Calque_2" data-name="Calque 2"><g id="New_police_Test" data-name="New police Test"><path class="cls-1" d="M82.17,77.89A40,40,0,0,1,4.82,63.4c0-.89,0-1.77.09-2.64A40,40,0,0,1,37.71,24a39.18,39.18,0,0,1,7.14-.64A39.93,39.93,0,0,1,76,38.27a6.07,6.07,0,0,0-.59.24,5,5,0,0,0-.65.33,6.15,6.15,0,0,0-1,.66c-2,.77-3.92,1.56-5.81,2.48a6.77,6.77,0,0,0-3.07,4,6.89,6.89,0,0,0,.67,5.16,6.67,6.67,0,0,0,5.59,3.18,7.18,7.18,0,0,0,.54,1.6c-1.34,2.9-.66,6.8,2,8.67a6.5,6.5,0,0,0-2.37,2.32,6.84,6.84,0,0,0-.67,5.14,6.74,6.74,0,0,0,3.07,4,6.67,6.67,0,0,0,5.15.66l1.33-.44h0c.29.29.59.57.91.85a4.11,4.11,0,0,0,.45.38A4.81,4.81,0,0,0,82.17,77.89Z"/><ellipse class="cls-2" cx="33.71" cy="48.04" rx="5.89" ry="4.26" transform="translate(-24.83 43.79) rotate(-50.79)"/><circle class="cls-2" cx="52.43" cy="27.86" r="3.5"/><ellipse class="cls-2" cx="48.66" cy="90.34" rx="4.21" ry="5.09" transform="translate(-31.07 25.75) rotate(-22.68)"/><circle class="cls-2" cx="14.75" cy="66.34" r="4.1"/><circle class="cls-2" cx="47.25" cy="63.73" r="4.1"/><path class="cls-3" d="M63.81,12a5.68,5.68,0,0,1-1.39,5.13A8.66,8.66,0,0,1,57,19.42c-.13,0-.85,0-.88.14s.06.11.08.12c.32.26,1.46,2.71,1,3.76-.64,1.46-4.31.26-10.76,1.25-.66.1-1.74.28-2.92.52-2.32.46-4,.91-5.26,1.23-3.1.81-2.74.89-5.36,1.58-.93.24-1.86.56-3.72,1.18l-2.1.7c-.35.13-1.44.52-3.47,1.35-1.67.68-1.49.64-2.44,1-3.6,1.42-3.45,1-4.89,1.78A15.89,15.89,0,0,1,12.6,35.9c-.87.26-1.11.23-1.3.13-1.16-.62-.51-3.9-1.44-4.21a.57.57,0,0,0-.22,0c-.46,0-.82.53-2.57,1A7.17,7.17,0,0,1,3.65,33a6.33,6.33,0,0,1-1.88-.76,3.29,3.29,0,0,1-1.13-.94,3.58,3.58,0,0,1-.37-2.36,10.68,10.68,0,0,1,.66-3.1A12.58,12.58,0,0,1,2.39,23a14,14,0,0,1,3.43-3.4,60.56,60.56,0,0,1,11.86-7.42c1.52-.7,2.78-1.21,3.6-1.52a34.07,34.07,0,0,0,5-1.77,7.4,7.4,0,0,1,1-.42c.81-.24,1.06-.13,1.47-.26.92-.3.93-1.32,1.85-2.56a17.87,17.87,0,0,1,2-1.78c.66-.54,1.72-1.22,3.78-2.59A8.34,8.34,0,0,1,37.56.64a4,4,0,0,1,.87-.35,2.28,2.28,0,0,1,2.33.93A2,2,0,0,1,40.91,3c-.48,1-2,1.55-3.79,2.13a3.33,3.33,0,0,0-1,.49c-.47.35-1.11,1-1,1.28.32,1.3,17.45-3.27,25.57,1.47A6.27,6.27,0,0,1,63.81,12Z"/><path class="cls-4" d="M126,24.35l-.38,18.52a15.88,15.88,0,0,1-1.85,7.56A8.36,8.36,0,0,1,116,55.05q-6.59,0-8.65-7.64a27.09,27.09,0,0,1-.71-7.64l6.88-.63a19.48,19.48,0,0,0-.37,3.73q0,5.09,3.15,5.17c2.26.06,3.4-2.16,3.4-6.64a27.75,27.75,0,0,0-.21-3.44l-1.64-12.6Z"/><path class="cls-4" d="M148,55.05l-8.19-1,.29-2.23a27.23,27.23,0,0,1-9.36-1.13c-3.5-1.24-5.11-3.36-4.83-6.39Q126.51,38,135.5,38a30.3,30.3,0,0,1,6.18.67,15,15,0,0,0-.51-4.79c-.56-1.68-1.52-2.5-2.9-2.47-2.12.05-3.17,1.82-3.15,5.29l-6.46-.55a17.44,17.44,0,0,1,2.1-7.56,7.79,7.79,0,0,1,7.22-4.2A8.37,8.37,0,0,1,145.79,29a16.06,16.06,0,0,1,1.85,7.56Zm-6.89-12a26,26,0,0,0-5.17-.59q-4.16,0-4.24,2.1-.12,2.73,4.62,2.73a23,23,0,0,0,4.54-.5Z"/><path class="cls-4" d="M164.73,37.41q-.37-6.72-4.28-6.21-2.69.33-4,4.74a17.05,17.05,0,0,0-.8,5.34q.14,4.32,4.75,4.32,3.61,0,9.62-2.73l2.31,6.89q-8,3.45-13.65,3.45-4,0-5.93-2a14,14,0,0,1-3.69-10.12,19.22,19.22,0,0,1,3.23-10.92q3.4-5.09,8.11-5.21A8.51,8.51,0,0,1,169,30.36a17.81,17.81,0,0,1,1.38,5.58Z"/><path class="cls-4" d="M188.55,38.88a13.08,13.08,0,0,1,4.95,5.8q2.4,5.55,2.19,16.42l-9.66.67a59.66,59.66,0,0,0,1-10.45q0-9.91-4.71-9.92a5.24,5.24,0,0,0-1.68.3l-.25,11h-7.14V25.36l7.73-.5L180.65,36q6.3-.21,6.3-7.31a19.3,19.3,0,0,0-.12-2.1l6.76,1.89Q192.91,35.52,188.55,38.88Z"/><path class="cls-4" d="M216.27,43.67a16.33,16.33,0,0,1-2.61,7,8.67,8.67,0,0,1-7.47,4.2,8.88,8.88,0,0,1-1.26-.08q-7.65-.93-7.86-11.17l6.43-.8c0,.36,0,.71,0,1.05q0,3.61,2.6,4,3.83.59,4.33-7.69a18,18,0,0,1-5.8,1.14q-7.82,0-7.81-10.12a29,29,0,0,1,.71-6.3l6.81.33a24.73,24.73,0,0,0-1.18,7,9.57,9.57,0,0,0,.21,2.1c.25,1.14,1.14,1.72,2.65,1.72a9.87,9.87,0,0,0,4.45-1.14l-.08-9.36,7.22-.63q-.16,3.9-.38,7.22Q216.73,40.1,216.27,43.67Z"/><path class="cls-4" d="M120.45,87.52a28.8,28.8,0,0,1-3.64,5.85Q112,99.24,106,99.23q-9.78,0-13.26-7.44a18.92,18.92,0,0,1-1.53-7.44,35.19,35.19,0,0,1,1.06-10q2.79-10,11.3-10c5.66,0,9.84,1.65,12.51,5a11.54,11.54,0,0,1,2.32,4.94l-9.08,2.93Q109,69.62,105,70q-2.49.24-4.39,4.32a19.33,19.33,0,0,0-1.85,8.4,11.15,11.15,0,0,0,1.64,6.38A6.11,6.11,0,0,0,106,91.84q3.63,0,6.38-7.54Z"/><path class="cls-4" d="M148.07,83q0,7.59-3,11.28Q141.52,98.8,133,98.56q-7.81-.24-10.35-5.19Q121,90.16,121,81.85a16.74,16.74,0,0,1,4.22-11.42q4.12-4.65,9.51-4.66t9.29,4.8A19,19,0,0,1,148.07,83Zm-13.26-9.5a6.83,6.83,0,0,0-3.37,1.78c-1.66,1.57-2.5,3.85-2.54,6.86q0,5,1,7a4,4,0,0,0,3.81,2.11,5.8,5.8,0,0,0,5-2.47,9.37,9.37,0,0,0,1.71-6.55,11.89,11.89,0,0,0-2.16-6.39C137.12,74.3,136,73.53,134.81,73.5Z"/><path class="cls-4" d="M178.27,83q0,7.59-3,11.28-3.59,4.52-12.14,4.28-7.81-.24-10.35-5.19-1.63-3.21-1.64-11.52a16.7,16.7,0,0,1,4.23-11.42q4.11-4.65,9.5-4.66t9.29,4.8A19,19,0,0,1,178.27,83ZM165,73.5a6.82,6.82,0,0,0-3.38,1.78c-1.66,1.57-2.5,3.85-2.54,6.86q0,5,1,7a4,4,0,0,0,3.8,2.11,5.8,5.8,0,0,0,5-2.47,9.32,9.32,0,0,0,1.71-6.55,11.81,11.81,0,0,0-2.16-6.39C167.32,74.3,166.18,73.53,165,73.5Z"/><path class="cls-4" d="M201.45,81.71a15.49,15.49,0,0,1,6.23,6.62q3,6.35,2.74,18.77l-12.14.77a62.48,62.48,0,0,0,1.27-12q0-11.33-5.92-11.33a7.39,7.39,0,0,0-2.11.33L191.2,97.5h-9V66.25l9.71-.57-.42,12.72q7.92-.24,7.92-8.36a18.47,18.47,0,0,0-.16-2.4l8.5,2.16Q206.94,77.87,201.45,81.71Z"/><path class="cls-4" d="M222.83,56.89a3.33,3.33,0,0,1,1.48,2.93q0,3.88-5.55,7.1-6.85-2.64-6.86-6.67a5,5,0,0,1,.79-2.59,3.12,3.12,0,0,1,2.22-.91,4.56,4.56,0,0,1,3.38,1.92q1.16-2.4,2.85-2.4A2.72,2.72,0,0,1,222.83,56.89Zm2.27,40.66-12.51-.39,1-27.4,9.72-1.16Z"/><path class="cls-4" d="M255.41,89.44q-5.55,8.34-14.47,8.35a16.68,16.68,0,0,1-3.06-.29q-6.24-1.05-9-5.9a16.88,16.88,0,0,1-2-8.4,20.83,20.83,0,0,1,.37-4.08,24.88,24.88,0,0,1,2.16-6.1q3.44-6.19,9.45-6.77,1.17-.09,2.22-.09,9,0,12.3,7.87A22.23,22.23,0,0,1,255,81.9l-20.65,1.63q.53,7.64,6.65,7.63a12.1,12.1,0,0,0,3.75-.67,7.15,7.15,0,0,0,4.28-4ZM240.25,72.92c-2.92.39-4.55,2.16-4.91,5.33l10.41-1q-1-4.32-4.7-4.32A7.64,7.64,0,0,0,240.25,72.92Z"/></g></g></svg>