<svg xmlns="http://www.w3.org/2000/svg" viewBox="0 0 84 104.94"><defs><style>.cls-1{fill:#e8b773;stroke:#683c11;stroke-width:3px;}.cls-1,.cls-3{stroke-miterlimit:10;}.cls-2{fill:#683d13;}.cls-3{fill:#1d1d1b;stroke:#1d1d1b;stroke-width:0.5px;}</style></defs><title>Fichier 17</title><g id="Calque_2" data-name="Calque 2"><g id="New_police_Test" data-name="New police Test"><path class="cls-1" d="M82.17,77.89A40,40,0,0,1,4.82,63.4c0-.89,0-1.77.09-2.64A40,40,0,0,1,37.71,24a39.18,39.18,0,0,1,7.14-.64A39.93,39.93,0,0,1,76,38.27a6.07,6.07,0,0,0-.59.24,5,5,0,0,0-.65.33,6.15,6.15,0,0,0-1,.66c-2,.77-3.92,1.56-5.81,2.48a6.77,6.77,0,0,0-3.07,4,6.89,6.89,0,0,0,.67,5.16,6.67,6.67,0,0,0,5.59,3.18,7.18,7.18,0,0,0,.54,1.6c-1.34,2.9-.66,6.8,2,8.67a6.5,6.5,0,0,0-2.37,2.32,6.84,6.84,0,0,0-.67,5.14,6.74,6.74,0,0,0,3.07,4,6.67,6.67,0,0,0,5.15.66l1.33-.44h0c.29.29.59.57.91.85a4.11,4.11,0,0,0,.45.38A4.81,4.81,0,0,0,82.17,77.89Z"/><ellipse class="cls-2" cx="33.71" cy="48.04" rx="5.89" ry="4.26" transform="translate(-24.83 43.79) rotate(-50.79)"/><circle class="cls-2" cx="52.43" cy="27.86" r="3.5"/><ellipse class="cls-2" cx="48.66" cy="90.34" rx="4.21" ry="5.09" transform="translate(-31.07 25.75) rotate(-22.68)"/><circle class="cls-2" cx="14.75" cy="66.34" r="4.1"/><circle class="cls-2" cx="47.25" cy="63.73" r="4.1"/><path class="cls-3" d="M63.81,12a5.68,5.68,0,0,1-1.39,5.13A8.66,8.66,0,0,1,57,19.42c-.13,0-.85,0-.88.14s.06.11.08.12c.32.26,1.46,2.71,1,3.76-.64,1.46-4.31.26-10.76,1.25-.66.1-1.74.28-2.92.52-2.32.46-4,.91-5.26,1.23-3.1.81-2.74.89-5.36,1.58-.93.24-1.86.56-3.72,1.18l-2.1.7c-.35.13-1.44.52-3.47,1.35-1.67.68-1.49.64-2.44,1-3.6,1.42-3.45,1-4.89,1.78A15.89,15.89,0,0,1,12.6,35.9c-.87.26-1.11.23-1.3.13-1.16-.62-.51-3.9-1.44-4.21a.57.57,0,0,0-.22,0c-.46,0-.82.53-2.57,1A7.17,7.17,0,0,1,3.65,33a6.33,6.33,0,0,1-1.88-.76,3.29,3.29,0,0,1-1.13-.94,3.58,3.58,0,0,1-.37-2.36,10.68,10.68,0,0,1,.66-3.1A12.58,12.58,0,0,1,2.39,23a14,14,0,0,1,3.43-3.4,60.56,60.56,0,0,1,11.86-7.42c1.52-.7,2.78-1.21,3.6-1.52a34.07,34.07,0,0,0,5-1.77,7.4,7.4,0,0,1,1-.42c.81-.24,1.06-.13,1.47-.26.92-.3.93-1.32,1.85-2.56a17.87,17.87,0,0,1,2-1.78c.66-.54,1.72-1.22,3.78-2.59A8.34,8.34,0,0,1,37.56.64a4,4,0,0,1,.87-.35,2.28,2.28,0,0,1,2.33.93A2,2,0,0,1,40.91,3c-.48,1-2,1.55-3.79,2.13a3.33,3.33,0,0,0-1,.49c-.47.35-1.11,1-1,1.28.32,1.3,17.45-3.27,25.57,1.47A6.27,6.27,0,0,1,63.81,12Z"/></g></g></svg>